<svg width="81" height="28" viewBox="0 0 81 28" fill="none" xmlns="http://www.w3.org/2000/svg">
<path d="M5.81235 3.02013C2.97635 4.65613 0.644349 6.00813 0.620349 6.03213C0.600349 6.05213 1.21235 6.42813 2.23635 7.02013C3.14435 7.54413 3.91635 7.99213 3.95235 8.01213C4.00435 8.04413 4.77635 7.61213 7.46835 6.06013C9.36435 4.96413 10.9403 4.06813 10.9643 4.06813C10.9963 4.06813 18.2163 8.21613 21.1203 9.90413L21.3483 10.0361L21.3403 8.03613L21.3283 6.03213L16.2083 3.07213C13.3923 1.44813 11.0603 0.100134 11.0243 0.0801334C10.9803 0.0561333 9.63635 0.812134 5.81235 3.02013Z" fill="#FF4000"/>
<path d="M28.7283 6.74382C27.2443 6.95582 26.3763 7.32382 25.6443 8.05582C25.1443 8.55982 24.8603 9.10782 24.7003 9.87982C24.6323 10.1958 24.6243 10.3638 24.6403 10.8998C24.6643 11.6358 24.7083 11.8478 24.9683 12.3798C25.5003 13.4798 26.4523 14.2158 28.4483 15.0598C30.5323 15.9438 31.0803 16.3998 31.1363 17.2958C31.1843 18.0118 30.8843 18.5078 30.2123 18.8238C30.0563 18.8958 29.8203 18.9878 29.6883 19.0238C29.3683 19.1118 28.3883 19.1438 27.8803 19.0838C27.1163 18.9918 26.1483 18.7318 25.3963 18.4118C25.2123 18.3358 25.0563 18.2798 25.0443 18.2918C24.9963 18.3398 24.4323 20.4998 24.4643 20.5318C24.5323 20.5998 25.2483 20.8838 25.6803 21.0158C26.7963 21.3558 27.8643 21.4998 29.0083 21.4678C30.0563 21.4398 30.7123 21.3078 31.5043 20.9678C33.2883 20.1958 34.3203 18.5198 34.1083 16.7398C33.9763 15.6438 33.4243 14.7478 32.4203 13.9918C31.8483 13.5598 31.2123 13.2198 29.9483 12.6598C28.6363 12.0838 28.0923 11.7598 27.8283 11.3918C27.4403 10.8598 27.5483 9.90782 28.0403 9.51982C28.2283 9.36782 28.6523 9.19982 28.9923 9.13182C29.4523 9.04782 30.4083 9.07982 30.9843 9.19982C31.4843 9.30382 32.2163 9.54382 32.6443 9.73582C32.8563 9.83182 32.9563 9.86382 32.9683 9.82782C33.0523 9.59182 33.5003 7.61582 33.4763 7.59182C33.4043 7.51982 32.4523 7.14382 32.0723 7.03982C31.2803 6.81982 30.7763 6.75182 29.7683 6.73982C29.2643 6.73182 28.7963 6.73582 28.7283 6.74382Z" fill="#7F7F7F"/>
<path d="M54.8483 6.76412C52.4003 7.02813 50.4083 8.21213 49.2963 10.0681C48.1763 11.9281 47.9043 14.7121 48.6283 16.8841C49.1803 18.5401 50.3603 19.8921 51.9323 20.6601C53.5243 21.4401 55.5043 21.6681 57.8483 21.3401C58.7923 21.2041 59.8483 20.9481 60.5443 20.6801L60.8683 20.5561V17.6361V14.7201H59.5283H58.1883V16.8401V18.9561L58.0403 18.9961C56.7683 19.3361 55.2203 19.3121 54.0483 18.9321C52.8083 18.5321 51.9763 17.7241 51.5323 16.4881C51.1123 15.3161 51.1083 13.3481 51.5243 12.1081C52.0643 10.4961 53.1963 9.53213 54.9723 9.17213C55.4683 9.07213 57.1003 9.07213 57.6843 9.17213C58.3963 9.29613 59.5163 9.61613 60.0683 9.85613C60.1203 9.88013 60.1603 9.72013 60.3243 8.83213C60.4283 8.25213 60.5243 7.73213 60.5363 7.67613C60.5563 7.57213 60.5403 7.56413 60.1243 7.40013C59.3523 7.10013 58.7243 6.94013 57.8283 6.81612C57.2723 6.74013 55.3683 6.70813 54.8483 6.76412Z" fill="#7F7F7F"/>
<path d="M68.1084 6.76398C65.9684 7.00398 64.1564 8.12798 63.0364 9.89998C62.5404 10.692 62.1284 11.924 61.9884 13.04C61.9324 13.52 61.9404 14.784 62.0084 15.284C62.3084 17.544 63.4164 19.344 65.1884 20.444C66.3124 21.14 67.5924 21.48 69.1084 21.48C70.3884 21.48 71.4564 21.248 72.4444 20.752C73.8484 20.052 74.8244 19.056 75.5124 17.62C76.6484 15.252 76.4964 12.104 75.1404 9.89198C74.5164 8.86398 73.6564 8.07598 72.5484 7.50398C71.7564 7.09598 70.9644 6.85998 70.0604 6.76398C69.6124 6.71198 68.5484 6.71598 68.1084 6.76398ZM69.6564 9.08398C71.2724 9.26398 72.4524 10.272 72.9804 11.92C73.4004 13.228 73.4004 14.972 72.9804 16.28C72.5364 17.664 71.6164 18.616 70.3724 18.976C69.5564 19.216 68.5324 19.204 67.7484 18.952C66.2924 18.484 65.3564 17.28 65.0204 15.44C64.9004 14.776 64.9004 13.424 65.0204 12.76C65.2164 11.684 65.5884 10.876 66.1764 10.24C66.7084 9.66398 67.5124 9.23598 68.2764 9.12398C68.4364 9.09998 68.6124 9.07198 68.6684 9.06398C68.8804 9.03598 69.2884 9.03998 69.6564 9.08398Z" fill="#7F7F7F"/>
<path d="M35.2684 11.848C35.2684 15.952 35.2764 16.8 35.3284 17.1C35.5084 18.224 35.9684 19.148 36.7244 19.904C37.7644 20.948 39.2524 21.48 41.1284 21.48C43.9684 21.48 45.9804 20.228 46.7244 17.996C47.0164 17.124 47.0004 17.452 47.0164 11.928L47.0324 6.95998H45.5324H44.0284L44.0204 11.968C44.0044 17.544 44.0284 17.12 43.7324 17.74C43.3884 18.468 42.7204 18.94 41.8404 19.076C41.3884 19.144 40.7004 19.132 40.2684 19.04C39.2764 18.836 38.6204 18.212 38.3364 17.204C38.2484 16.9 38.2484 16.888 38.2364 11.928L38.2244 6.95998H36.7484H35.2684V11.848Z" fill="#7F7F7F"/>
<path d="M77.6683 14.1V21.24H79.1083H80.5483V14.1V6.95999H79.1083H77.6683V14.1Z" fill="#7F7F7F"/>
<path d="M9.23227 9.05978C8.30027 9.59978 7.52827 10.0438 7.52027 10.0518C7.51227 10.0638 21.0563 17.8918 21.3203 18.0278C21.3363 18.0358 21.3483 17.1478 21.3483 16.0518V14.0598L16.1683 11.0678C13.3203 9.42378 10.9763 8.07978 10.9603 8.07978C10.9443 8.07978 10.1643 8.51978 9.23227 9.05978Z" fill="#FF4000"/>
<path d="M0.54834 12.068V14.064L5.72434 17.048C8.57234 18.692 10.9163 20.044 10.9403 20.048C10.9843 20.06 14.3883 18.116 14.3883 18.076C14.3883 18.06 0.85634 10.236 0.58034 10.092C0.56034 10.084 0.54834 10.972 0.54834 12.068Z" fill="#FF4000"/>
<path d="M0.55634 20.084L0.56834 22.092L5.68834 25.044C10.0843 27.584 10.8283 28 10.9643 28C11.0963 28 11.8403 27.584 16.2323 25.048C19.0443 23.428 21.3283 22.084 21.3083 22.064C21.2923 22.048 20.5163 21.592 19.5883 21.056C18.0323 20.16 17.8923 20.088 17.8123 20.14C17.2683 20.484 10.9643 24.08 10.9283 24.064C10.8763 24.048 0.81234 18.244 0.63634 18.136L0.54834 18.076L0.55634 20.084Z" fill="#FF4000"/>
</svg>
